<?xml version="1.0" encoding="utf-8"?>
<!-- Generator: Adobe Illustrator 15.0.0, SVG Export Plug-In . SVG Version: 6.00 Build 0)  -->
<!DOCTYPE svg PUBLIC "-//W3C//DTD SVG 1.1//EN" "http://www.w3.org/Graphics/SVG/1.1/DTD/svg11.dtd">
<svg version="1.1" class="dog1" xmlns="http://www.w3.org/2000/svg" xmlns:xlink="http://www.w3.org/1999/xlink" viewBox="184.064 27.727 450.578 550.773"
	 enable-background="new 184.064 25.727 431.578 464.773" xml:space="preserve">
<g id="main">
	<g>
		<path fill="none" id="leftEar" d="M251.483,134.895c0-14.364,18.443-19.109,17.28-2.901c10.833-11.199,20.287-22.736,34.738-29.352
			c-13.426-16.77-26.851-33.539-40.277-50.309c-15.029,44.082-30.058,88.163-45.086,132.245
			C233.75,168.318,251.483,157.816,251.483,134.895z"/>
		<path fill="#E79EA9" d="M391.365,298.949c-8.369,9.121-38.707,16.748-38.707,25.259c0,13.625,0,32.251,0,45.876
			c0,29.515,3.526,99.739,39.842,106.416c0,0,2-7-1.14-36.62C396.137,484.938,391.363,344.26,391.365,298.949z"/>
		<path fill="#E79EA9" d="M447.348,321.493c0-1.091-33.832-17.159-38.707-22.425c0,45.263-2.141,134.169-2.141,179.432
			c22-11,19-18,19-18c13-11,21.848-65.072,21.848-96.007C447.348,351.826,447.348,334.16,447.348,321.493z"/>
		<path fill="none" id="top" d="M399.914,135.781c4.542-8.634,10.752-16.377,18.231-22.646c0,0-0.024,0.021-0.062,0.052
			c-0.051,0.042-0.095,0.08-0.144,0.121c-0.053,0.044-0.114,0.096-0.183,0.153c-0.047,0.039-0.097,0.081-0.143,0.119
			c-0.062,0.052-0.127,0.106-0.196,0.164c-0.259,0.218-0.491,0.412-0.706,0.592c-0.062,0.052-0.124,0.104-0.186,0.156
			c-0.284,0.238-0.525,0.44-0.73,0.613c-0.072,0.06-0.143,0.119-0.209,0.175c-0.243,0.204-0.421,0.352-0.543,0.455
			c-0.115,0.097-0.188,0.158-0.213,0.178c-0.014,0.012-0.012,0.01,0,0c0.024-0.021,0.097-0.081,0.213-0.178
			c0.136-0.114,0.325-0.272,0.543-0.455c0.063-0.054,0.135-0.113,0.209-0.175c0.229-0.193,0.479-0.403,0.73-0.613
			c0.059-0.049,0.123-0.103,0.186-0.156c0.251-0.21,0.493-0.413,0.706-0.592c0.063-0.053,0.131-0.109,0.196-0.164
			c0.051-0.042,0.098-0.082,0.143-0.119c0.06-0.05,0.12-0.101,0.183-0.153c0.062-0.051,0.109-0.091,0.144-0.121
			c0.022-0.019,0.04-0.034,0.062-0.052c-12.235,0-24.471,0-36.706,0C388.975,119.408,395.279,127.14,399.914,135.781z"/>
		<path fill="none" id="head" d="M409.58,268.784c9.489,49.097,92.479,43.045,93.716-7.378c0.186-7.119,6.444-15.774,14.263-9.194
			c7.202,6.062,1.697,22.608-0.637,29.221c-2.235,6.338-5.56,7.885-8.171,14.137c-11.379,27.247-22.757,59.493-34.135,86.74
			c-8.123,19.449-19.02,46.298-32.116,64.189c30.23,0,63.592-4.987,78.887-37.119c7.284-12.913,12.9-27.104,19.268-40.481
			c18.351-38.555,36.701-77.108,55.052-115.663c12.276-26.497-14.362-44.241-30.272-60.797
			c-16.545-17.218-33.093-34.434-49.688-51.603c-28.156-29.131-74.851-41.752-99.499,0.917c-5.219,9.035-3.584,27.83-10.143,34.39
			c-13.688,13.69-15.277-15.562-16.822-21.032c-6.074-21.504-25.042-38.329-47.22-41.441c-41.125-5.771-70.66,40.443-95.372,66.142
			c-25.562,26.583-55.765,45.334-37.524,83.656c12.824,26.943,25.649,53.886,38.474,80.829
			c10.184,21.394,20.367,42.788,30.55,64.182c15.57,32.71,42.357,32.234,73.31,32.234c-12.683-18.783-17.991-38.937-26.12-58.402
			c-11.377-27.247-22.755-59.493-34.132-86.74c-4.067-9.739-9.178-14.557-10.957-24.969c-1.097-6.421-3.201-21.44,8.55-20.489
			c9.623,0.854,7.472,12.399,8.645,18.601c8.175,43.218,84.707,43.784,93.034,0.071"/>
		<path fill="black" d="M335.377,319.108c-0.039-0.005-0.072-0.01-0.109-0.015c-0.018-0.002-0.037-0.005-0.06-0.008
			c-0.416-0.056-0.771-0.103-1.073-0.143c-0.112-0.016-0.226-0.03-0.337-0.045c-0.038-0.005-0.078-0.011-0.114-0.016
			c-0.137-0.018-0.267-0.035-0.388-0.051c-0.186-0.025-0.323-0.043-0.422-0.057c-0.24-0.032-0.296-0.039,0,0
			c0.109,0.015,0.255,0.034,0.422,0.057c0.112,0.015,0.24,0.031,0.388,0.051c0.038,0.006,0.075,0.011,0.114,0.016
			c0.104,0.014,0.216,0.028,0.337,0.045c0.434,0.058,0.85,0.113,1.073,0.143c0.021,0.003,0.039,0.005,0.06,0.008
			C335.335,319.103,335.377,319.108,335.377,319.108c-6.125-0.818-12.012-2.481-17.659-4.991
			c5.886,14.095,11.773,33.188,17.659,47.283C335.377,348.97,335.377,331.539,335.377,319.108z"/>
		<path fill="black" d="M464.622,332.216c0,8.062,0,21.126,0,29.189c5.882-14.085,11.764-33.17,17.646-47.255
			C466.48,321.222,464.622,315.033,464.622,332.216z"/>
		<path fill="none" id="rightEar" d="M531.232,131.989c-0.551-7.67,7.779-15.431,14.749-8.461c3.792,3.793,2.53,11.592,2.53,16.24
			c0,18.711,20.838,31.785,33.331,44.792c-15.022-44.075-30.044-88.15-45.066-132.226c-13.446,16.791-26.894,33.581-40.34,50.371
			C511.076,109.431,520.208,120.584,531.232,131.989z"/>
		<path d="M613.494,223.822c-21.709-63.682-43.418-127.364-65.126-191.045c-6.01-17.629-20.174,2.633-24.972,8.625
			c-13.629,17.025-27.258,34.05-40.888,51.074c-4.978,6.218-14.821,3.378-22.397,3.378c-22.948,0-45.896,0-68.844,0
			c-19.562,0-39.124,0-58.686,0c-13.738,0-13.136-0.959-22.107-12.162c-8.658-10.812-49.826-77.374-60.272-46.729
			c-12.837,37.659-25.674,75.319-38.512,112.978c-9.392,27.552-33.812,71.534-26.167,101.787
			c5.561,22.004,19.676,43.608,29.329,63.891c13.981,29.377,31.285,57.394,41.944,88.132C268.5,437.5,314.5,459.5,352.735,458
			c13.613-0.534,13.765,32.5,48.265,32.5c26.106,0,36.543-33.295,44.5-32c43,7,78-18,100.871-61.413
			c15.71-29.82,28.971-60.868,43.457-91.302C601.244,281.8,622.444,251.386,613.494,223.822z M536.776,52.333
			c15.022,44.075,30.044,88.15,45.066,132.226c-12.493-13.007-33.331-26.081-33.331-44.792c0-4.648,1.262-12.446-2.53-16.24
			c-6.97-6.97-15.3,0.791-14.749,8.461c-11.024-11.404-20.156-22.558-34.796-29.285C509.883,85.914,523.33,69.124,536.776,52.333z
			 M418.145,113.134c-7.479,6.269-13.688,14.012-18.231,22.646c-4.634-8.641-10.939-16.373-18.475-22.646
			C393.674,113.134,405.909,113.134,418.145,113.134z M263.224,52.333c13.426,16.77,26.851,33.539,40.277,50.309
			c-14.451,6.616-23.905,18.153-34.738,29.352c1.164-16.208-17.28-11.463-17.28,2.901c0,22.922-17.733,33.424-33.346,49.683
			C233.167,140.496,248.195,96.415,263.224,52.333z M392.5,476.5c-36.316-6.677-39.842-76.901-39.842-106.416
			c0-13.625,0-32.251,0-45.876c0-8.511,30.338-16.138,38.707-25.259 M426.5,462.5c0,0-6.59,16-20,16
			c0-68,2.141-134.169,2.141-179.432c4.875,5.266,38.707,21.334,38.707,22.425c0,12.667,0,30.333,0,43
			C447.348,395.428,439.5,451.5,426.5,462.5z M390.52,268.784c-8.326,43.709-84.859,43.149-93.034-0.071
			c-1.173-6.202,0.978-17.747-8.645-18.601c-11.751-0.951-9.647,14.068-8.55,20.489c1.778,10.412,6.89,15.23,10.957,24.969
			c11.377,27.247,22.755,59.493,34.132,86.74c8.129,19.466,13.437,39.619,26.12,58.402c-30.952,0-57.74,0.476-73.31-32.234
			c-10.184-21.394-20.367-42.788-30.55-64.182c-12.825-26.943-25.649-53.886-38.474-80.829
			c-18.241-38.322,11.962-57.074,37.524-83.656c24.712-25.699,54.247-71.913,95.372-66.142c22.178,3.112,41.146,19.937,47.22,41.441
			c1.545,5.47,3.134,34.722,16.822,21.032c6.559-6.56,4.924-25.354,10.143-34.39c24.648-42.669,71.343-30.048,99.499-0.917
			c16.595,17.169,33.143,34.385,49.688,51.603c15.91,16.557,42.549,34.3,30.272,60.797c0,0,0.009-0.02,0.022-0.048
			c0.01-0.022,0.02-0.042,0.029-0.064c0.085-0.184,0.269-0.579,0.479-1.033c0.047-0.102,0.091-0.195,0.134-0.289
			c0.145-0.312,0.294-0.634,0.428-0.923c0.08-0.172,0.15-0.324,0.207-0.446c0.014-0.03,0.025-0.056,0.038-0.083
			c0.304-0.655,0.228-0.492,0,0c-0.013,0.028-0.024,0.053-0.038,0.083c-0.062,0.132-0.132,0.284-0.207,0.446
			c-0.115,0.25-0.258,0.556-0.428,0.923c-0.045,0.098-0.09,0.194-0.134,0.289c-0.142,0.305-0.301,0.649-0.479,1.033
			c-0.012,0.026-0.021,0.047-0.029,0.064s-0.015,0.031-0.022,0.048c-18.351,38.554-36.701,77.108-55.052,115.663
			c-6.367,13.378-11.983,27.568-19.268,40.481C506.092,441.513,472.73,446.5,442.5,446.5c13.097-17.892,23.993-44.74,32.116-64.189
			c11.378-27.247,22.756-59.493,34.135-86.74c2.611-6.252,5.936-7.799,8.171-14.137c2.334-6.612,7.839-23.159,0.637-29.221
			c-7.818-6.58-14.077,2.075-14.263,9.194c-1.236,50.423-84.227,56.475-93.716,7.378 M464.622,361.405c0-8.063,0-21.127,0-29.189
			c0-17.183,1.858-10.994,17.646-18.065C476.386,328.235,470.504,347.32,464.622,361.405z M335.377,319.108
			c0,12.431,0,29.861,0,42.292c-5.886-14.095-11.773-33.188-17.659-47.283C323.366,316.627,329.252,318.29,335.377,319.108z"/>
	</g>
</g>
<g id="Nose">
	<path d="M409.938,269.435c24.215,1.783,26.977-15.469,26.977-34.713c0-20.836-17.836-21.447-33.736-21.447
		c-15.088,0-39.357-2.332-39.357,19.699c-3.699,19.758-0.784,43.023,44.057,36.461"/>
</g>
<g >
	<path id="rightEye" d="M464.206,200.094c7.508,1.742,19.621,3.803,23.73-4.704c2.283-3.416,3.476-8.147,5.093-11.938
		C477.392,179.487,468.786,184.843,464.206,200.094z"/>
	<path d="M506.518,167.675c-16.608-1.996-37.914-8.18-49.859,7.84c-5.03,6.746-22.065,38.438-5.96,40.362
		c12.576,7.338,40.541,3.307,49.059-7.133C505.124,202.168,522.961,169.671,506.518,167.675z M487.937,195.39
		c0,0-0.019,0.039-0.045,0.093c-0.063,0.131-0.117,0.242-0.173,0.357c-0.253,0.523-0.645,1.334-0.733,1.52
		c-0.021,0.044-0.021,0.045,0,0c0.054-0.111,0.268-0.553,0.733-1.52c0.075-0.154,0.135-0.278,0.173-0.357
		C487.908,195.45,487.919,195.425,487.937,195.39c-4.109,8.507-16.223,6.446-23.73,4.704c4.58-15.251,13.186-20.607,28.823-16.642
		C491.412,187.243,490.22,191.975,487.937,195.39z"/>
</g>
<g >
	<path id="leftEye" d="M307.749,184.337c2.071,7.461,6.554,18.879,15.959,18.211c4.095,0.271,8.787-1.061,12.874-1.555
		C332.294,185.554,323.162,180.557,307.749,184.337z"/>
	<path d="M295.624,168.4c-16.773,2.021-3.368,27.605,1.646,35.378c10.208,21.171,32.885,15.394,51.437,13.158
		c17.919-2.159,1.906-27.067-1.646-35.377C336.808,160.377,314.211,166.16,295.624,168.4z M323.708,202.548
		c-0.053,0.004-0.089,0.007-0.141,0.01c-0.219,0.016-0.666,0.048-1.085,0.078c-0.014,0-0.032,0.002-0.045,0.003
		c-0.151,0.011-0.291,0.021-0.416,0.029c-0.063,0.005-0.112,0.008-0.159,0.011c-0.284,0.021-0.367,0.026,0,0
		c0.048-0.003,0.101-0.006,0.159-0.011c0.112-0.008,0.25-0.018,0.416-0.029c0.015-0.001,0.03-0.003,0.045-0.003
		c0.28-0.021,0.637-0.045,1.085-0.078C323.65,202.552,323.708,202.548,323.708,202.548c-9.406,0.668-13.888-10.75-15.959-18.211
		c15.413-3.78,24.545,1.217,28.833,16.656C332.495,201.488,327.803,202.82,323.708,202.548z"/>
</g>
</svg>