<?xml version="1.0" encoding="UTF-8"?>
<svg xmlns="http://www.w3.org/2000/svg" xmlns:xlink="http://www.w3.org/1999/xlink" width="50pt" height="61pt" viewBox="0 0 50 61" version="1.1">
<g id="surface1">
<path style=" stroke:none;fill-rule:nonzero;fill:rgb(90.588235%,61.960784%,66.27451%);fill-opacity:1;" d="M 23.003906 30.039062 C 22.078125 31.050781 18.710938 31.894531 18.710938 32.835938 C 18.710938 34.34375 18.710938 36.40625 18.710938 37.917969 C 18.710938 41.1875 19.101562 48.964844 23.128906 49.703125 C 23.128906 49.703125 23.351562 48.929688 23.003906 45.648438 C 23.535156 50.636719 23.003906 35.058594 23.003906 30.039062 Z M 23.003906 30.039062 "/>
<path style=" stroke:none;fill-rule:nonzero;fill:rgb(90.588235%,61.960784%,66.27451%);fill-opacity:1;" d="M 29.214844 32.535156 C 29.214844 32.414062 25.460938 30.636719 24.921875 30.050781 C 24.921875 35.066406 24.683594 44.910156 24.683594 49.925781 C 27.125 48.707031 26.789062 47.929688 26.789062 47.929688 C 28.234375 46.710938 29.214844 40.722656 29.214844 37.296875 C 29.214844 35.894531 29.214844 33.9375 29.214844 32.535156 Z M 29.214844 32.535156 "/>
<path style=" stroke:none;fill-rule:nonzero;fill:rgb(0%,0%,0%);fill-opacity:1;" d="M 16.796875 32.269531 C 16.789062 32.269531 16.789062 32.269531 16.78125 32.269531 C 16.78125 32.269531 16.777344 32.269531 16.777344 32.269531 C 16.730469 32.261719 16.691406 32.257812 16.65625 32.253906 C 16.644531 32.25 16.632812 32.25 16.621094 32.25 C 16.617188 32.246094 16.613281 32.246094 16.609375 32.246094 C 16.59375 32.246094 16.578125 32.242188 16.566406 32.242188 C 16.542969 32.238281 16.527344 32.234375 16.519531 32.234375 C 16.492188 32.230469 16.484375 32.230469 16.519531 32.234375 C 16.53125 32.234375 16.546875 32.238281 16.566406 32.242188 C 16.578125 32.242188 16.589844 32.242188 16.609375 32.246094 C 16.613281 32.246094 16.617188 32.246094 16.621094 32.25 C 16.632812 32.25 16.644531 32.25 16.65625 32.253906 C 16.707031 32.257812 16.75 32.265625 16.777344 32.269531 C 16.777344 32.269531 16.78125 32.269531 16.78125 32.269531 C 16.789062 32.269531 16.796875 32.269531 16.796875 32.269531 C 16.117188 32.179688 15.464844 31.996094 14.835938 31.71875 C 15.488281 33.28125 16.140625 35.394531 16.796875 36.957031 C 16.796875 35.578125 16.796875 33.648438 16.796875 32.269531 Z M 16.796875 32.269531 "/>
<path style=" stroke:none;fill-rule:nonzero;fill:rgb(0%,0%,0%);fill-opacity:1;" d="M 31.128906 33.722656 C 31.128906 34.617188 31.128906 36.0625 31.128906 36.957031 C 31.78125 35.394531 32.433594 33.28125 33.085938 31.722656 C 31.335938 32.503906 31.128906 31.820312 31.128906 33.722656 Z M 31.128906 33.722656 "/>
<path style=" stroke:none;fill-rule:nonzero;fill:rgb(0%,0%,0%);fill-opacity:1;" d="M 47.640625 21.71875 C 45.234375 14.664062 42.824219 7.613281 40.417969 0.558594 C 39.75 -1.394531 38.179688 0.851562 37.648438 1.515625 C 36.136719 3.398438 34.625 5.285156 33.113281 7.171875 C 32.5625 7.859375 31.46875 7.546875 30.628906 7.546875 C 28.085938 7.546875 25.539062 7.546875 22.992188 7.546875 C 20.824219 7.546875 18.65625 7.546875 16.484375 7.546875 C 14.960938 7.546875 15.027344 7.4375 14.035156 6.199219 C 13.074219 5 8.507812 -2.371094 7.347656 1.023438 C 5.925781 5.195312 4.5 9.363281 3.078125 13.535156 C 2.035156 16.585938 -0.671875 21.457031 0.175781 24.808594 C 0.792969 27.246094 2.355469 29.636719 3.429688 31.886719 C 4.976562 35.136719 6.898438 38.242188 8.078125 41.644531 C 9.378906 45.382812 14.480469 47.820312 18.71875 47.652344 C 20.230469 47.59375 20.246094 51.253906 24.074219 51.253906 C 26.96875 51.253906 28.125 47.566406 29.007812 47.710938 C 33.777344 48.484375 37.660156 45.714844 40.195312 40.90625 C 41.9375 37.605469 43.410156 34.167969 45.015625 30.796875 C 46.28125 28.140625 48.632812 24.769531 47.640625 21.71875 Z M 39.132812 2.726562 C 40.796875 7.605469 42.464844 12.488281 44.128906 17.371094 C 42.746094 15.929688 40.433594 14.480469 40.433594 12.410156 C 40.433594 11.894531 40.574219 11.03125 40.152344 10.609375 C 39.378906 9.839844 38.457031 10.699219 38.519531 11.546875 C 37.296875 10.285156 36.28125 9.050781 34.660156 8.304688 C 36.148438 6.445312 37.640625 4.585938 39.132812 2.726562 Z M 25.976562 9.460938 C 25.144531 10.152344 24.457031 11.011719 23.953125 11.96875 C 23.4375 11.011719 22.738281 10.152344 21.902344 9.460938 C 23.261719 9.460938 24.617188 9.460938 25.976562 9.460938 Z M 8.792969 2.726562 C 10.28125 4.582031 11.769531 6.441406 13.261719 8.296875 C 11.65625 9.03125 10.609375 10.308594 9.40625 11.546875 C 9.535156 9.753906 7.492188 10.277344 7.492188 11.871094 C 7.492188 14.40625 5.523438 15.570312 3.792969 17.371094 C 5.460938 12.488281 7.125 7.609375 8.792969 2.726562 Z M 23.128906 49.703125 C 19.101562 48.964844 18.710938 41.1875 18.710938 37.917969 C 18.710938 36.40625 18.710938 34.34375 18.710938 32.835938 C 18.710938 31.894531 22.078125 31.050781 23.003906 30.039062 M 26.902344 48.152344 C 26.902344 48.152344 26.171875 49.925781 24.683594 49.925781 C 24.683594 42.394531 24.921875 35.066406 24.921875 30.050781 C 25.460938 30.636719 29.214844 32.414062 29.214844 32.535156 C 29.214844 33.9375 29.214844 35.894531 29.214844 37.296875 C 29.214844 40.722656 28.34375 46.933594 26.902344 48.152344 Z M 22.910156 26.699219 C 21.988281 31.539062 13.5 31.476562 12.59375 26.691406 C 12.460938 26.003906 12.703125 24.722656 11.632812 24.628906 C 10.332031 24.523438 10.5625 26.1875 10.6875 26.898438 C 10.882812 28.050781 11.449219 28.585938 11.902344 29.664062 C 13.164062 32.683594 14.425781 36.253906 15.6875 39.269531 C 16.589844 41.425781 17.175781 43.660156 18.582031 45.738281 C 15.152344 45.738281 12.179688 45.792969 10.453125 42.167969 C 9.324219 39.800781 8.195312 37.429688 7.0625 35.0625 C 5.640625 32.078125 4.21875 29.09375 2.796875 26.109375 C 0.773438 21.863281 4.125 19.789062 6.957031 16.84375 C 9.699219 13.996094 12.976562 8.878906 17.535156 9.519531 C 19.996094 9.863281 22.101562 11.726562 22.773438 14.109375 C 22.945312 14.714844 23.121094 17.953125 24.640625 16.4375 C 25.367188 15.710938 25.1875 13.628906 25.765625 12.628906 C 28.5 7.902344 33.675781 9.300781 36.800781 12.527344 C 38.640625 14.429688 40.476562 16.335938 42.3125 18.242188 C 44.074219 20.074219 47.03125 22.042969 45.667969 24.976562 C 45.667969 24.976562 45.667969 24.972656 45.671875 24.96875 C 45.671875 24.96875 45.671875 24.964844 45.675781 24.964844 C 45.683594 24.941406 45.703125 24.898438 45.726562 24.847656 C 45.734375 24.835938 45.738281 24.828125 45.742188 24.816406 C 45.757812 24.78125 45.773438 24.746094 45.789062 24.714844 C 45.796875 24.695312 45.804688 24.679688 45.8125 24.664062 C 45.8125 24.660156 45.816406 24.660156 45.816406 24.65625 C 45.851562 24.582031 45.84375 24.601562 45.816406 24.65625 C 45.816406 24.660156 45.8125 24.660156 45.8125 24.664062 C 45.804688 24.679688 45.796875 24.695312 45.789062 24.714844 C 45.777344 24.742188 45.761719 24.777344 45.742188 24.816406 C 45.738281 24.828125 45.730469 24.839844 45.726562 24.847656 C 45.710938 24.882812 45.695312 24.921875 45.675781 24.964844 C 45.671875 24.964844 45.671875 24.96875 45.671875 24.96875 C 45.671875 24.972656 45.667969 24.972656 45.667969 24.976562 C 43.632812 29.246094 41.597656 33.515625 39.5625 37.785156 C 38.855469 39.265625 38.234375 40.839844 37.425781 42.269531 C 35.730469 45.828125 32.027344 46.378906 28.675781 46.378906 C 30.128906 44.398438 31.335938 41.425781 32.238281 39.269531 C 33.5 36.253906 34.761719 32.683594 36.023438 29.664062 C 36.3125 28.972656 36.683594 28.800781 36.929688 28.097656 C 37.1875 27.367188 37.800781 25.535156 37 24.863281 C 36.132812 24.132812 35.441406 25.09375 35.417969 25.882812 C 35.28125 31.464844 26.078125 32.136719 25.023438 26.699219 M 31.128906 36.957031 C 31.128906 36.0625 31.128906 34.617188 31.128906 33.722656 C 31.128906 31.820312 31.335938 32.503906 33.085938 31.722656 C 32.433594 33.28125 31.78125 35.394531 31.128906 36.957031 Z M 16.796875 32.269531 C 16.796875 33.648438 16.796875 35.578125 16.796875 36.957031 C 16.140625 35.394531 15.488281 33.28125 14.835938 31.71875 C 15.464844 31.996094 16.117188 32.179688 16.796875 32.269531 Z M 16.796875 32.269531 "/>
<path style=" stroke:none;fill-rule:nonzero;fill:rgb(0%,0%,0%);fill-opacity:1;" d="M 25.066406 26.769531 C 27.75 26.96875 28.058594 25.058594 28.058594 22.925781 C 28.058594 20.617188 26.078125 20.550781 24.316406 20.550781 C 22.640625 20.550781 19.949219 20.292969 19.949219 22.730469 C 19.539062 24.921875 19.863281 27.496094 24.835938 26.769531 "/>
<path style=" stroke:none;fill-rule:nonzero;fill:rgb(0%,0%,0%);fill-opacity:1;" d="M 31.082031 19.089844 C 31.917969 19.28125 33.261719 19.511719 33.714844 18.570312 C 33.96875 18.191406 34.101562 17.667969 34.28125 17.246094 C 32.546875 16.808594 31.589844 17.402344 31.082031 19.089844 Z M 31.082031 19.089844 "/>
<path style=" stroke:none;fill-rule:nonzero;fill:rgb(0%,0%,0%);fill-opacity:1;" d="M 35.777344 15.5 C 33.933594 15.277344 31.570312 14.59375 30.246094 16.367188 C 29.6875 17.113281 27.800781 20.625 29.585938 20.839844 C 30.980469 21.652344 34.082031 21.203125 35.027344 20.046875 C 35.621094 19.320312 37.601562 15.722656 35.777344 15.5 Z M 33.714844 18.570312 C 33.714844 18.570312 33.714844 18.574219 33.710938 18.578125 C 33.703125 18.59375 33.699219 18.605469 33.691406 18.617188 C 33.664062 18.675781 33.621094 18.765625 33.609375 18.789062 C 33.609375 18.792969 33.609375 18.792969 33.609375 18.789062 C 33.617188 18.773438 33.640625 18.726562 33.691406 18.617188 C 33.699219 18.601562 33.707031 18.589844 33.710938 18.578125 C 33.710938 18.574219 33.714844 18.574219 33.714844 18.570312 C 33.261719 19.511719 31.917969 19.28125 31.082031 19.089844 C 31.59375 17.402344 32.546875 16.808594 34.28125 17.246094 C 34.101562 17.667969 33.96875 18.191406 33.714844 18.570312 Z M 33.714844 18.570312 "/>
<path style=" stroke:none;fill-rule:nonzero;fill:rgb(0%,0%,0%);fill-opacity:1;" d="M 13.730469 17.34375 C 13.960938 18.171875 14.457031 19.4375 15.5 19.363281 C 15.957031 19.390625 16.476562 19.246094 16.929688 19.191406 C 16.453125 17.480469 15.441406 16.925781 13.730469 17.34375 Z M 13.730469 17.34375 "/>
<path style=" stroke:none;fill-rule:nonzero;fill:rgb(0%,0%,0%);fill-opacity:1;" d="M 12.386719 15.578125 C 10.527344 15.804688 12.011719 18.636719 12.570312 19.5 C 13.699219 21.84375 16.214844 21.203125 18.273438 20.957031 C 20.261719 20.714844 18.484375 17.957031 18.089844 17.039062 C 16.953125 14.691406 14.449219 15.332031 12.386719 15.578125 Z M 15.5 19.363281 C 15.496094 19.363281 15.492188 19.363281 15.484375 19.363281 C 15.460938 19.363281 15.410156 19.367188 15.363281 19.371094 C 15.363281 19.371094 15.363281 19.371094 15.359375 19.371094 C 15.34375 19.375 15.328125 19.375 15.3125 19.375 C 15.308594 19.375 15.300781 19.375 15.296875 19.375 C 15.265625 19.378906 15.253906 19.378906 15.296875 19.375 C 15.300781 19.375 15.308594 19.375 15.3125 19.375 C 15.328125 19.375 15.339844 19.375 15.359375 19.371094 C 15.363281 19.371094 15.363281 19.371094 15.363281 19.371094 C 15.394531 19.371094 15.4375 19.367188 15.484375 19.363281 C 15.496094 19.363281 15.5 19.363281 15.5 19.363281 C 14.457031 19.4375 13.960938 18.171875 13.730469 17.34375 C 15.441406 16.925781 16.453125 17.480469 16.929688 19.191406 C 16.476562 19.246094 15.957031 19.390625 15.5 19.363281 Z M 15.5 19.363281 "/>
</g>
</svg>
